<svg width="83" height="49" viewBox="0 0 83 49" fill="none" xmlns="http://www.w3.org/2000/svg">
<path d="M76.5592 10.8811C75.773 12.2531 74.7235 13.0953 73.3511 13.4474C71.203 14.0079 68.6372 13.2882 67.4368 12.6726C65.8539 11.8611 64.0181 10.6299 62.0771 9.32838C55.8821 5.1695 48.1742 0 37.5811 0C29.1081 0 24.7557 3.79444 17.5498 10.0848L22.4883 14.4366C24.4047 13.1351 36.6369 14.3907 41.9756 18.0933C49.9046 23.5904 55.6293 27.5625 62.1508 27.5625C71.4838 27.5625 79.2759 22.2307 83 13.2974L76.5592 10.8811ZM55.8048 34.8849C53.6497 35.4362 51.091 34.7257 49.8906 34.1101C48.3076 33.2986 46.4719 32.0674 44.5308 30.7659C38.3323 26.607 30.6244 21.4375 20.0313 21.4375C11.5583 21.4375 7.20595 25.2319 0 31.5223L4.93851 35.8741C6.85144 34.5664 19.0907 35.8313 24.4258 39.5308C32.3548 45.0279 38.0795 49 44.601 49C53.934 49 61.7261 43.6682 65.4502 34.7349L59.0129 32.3186C58.2232 33.6906 57.1772 34.5297 55.8048 34.8849Z" fill="white"/>
</svg>
